<?xml version="1.0" encoding="utf-8"?>
<!-- Generator: Adobe Illustrator 25.2.0, SVG Export Plug-In . SVG Version: 6.00 Build 0)  -->
<svg version="1.1" id="Camada_1" xmlns:svgjs="http://svgjs.dev/svgjs"
	 xmlns="http://www.w3.org/2000/svg" xmlns:xlink="http://www.w3.org/1999/xlink" x="0px" y="0px" viewBox="0 0 345 281"
	 style="enable-background:new 0 0 345 281;" xml:space="preserve">
<style type="text/css">
	.st0{fill:#C06363;}
	.st1{fill:none;}
	.st2{font-family:'BebasNeue-Regular';}
	.st3{font-size:112.9311px;}
</style>
<g>
	<g>
		<path class="st0" d="M-38.1,56.6c-11.6-18-31.8-28.7-54.1-28.7c-22.3,0-42.5,10.7-54.1,28.7c-10.7,16.6-12.1,36.4-4,54.3
			l18.8,41.1l0.1,25.1c0,1.3,1.1,2.4,2.4,2.4c1.3,0,2.4-1.1,2.4-2.4l-0.1-26.2l-19.2-42.1c-7.4-16.4-6.1-34.4,3.6-49.6
			c10.7-16.6,29.4-26.5,50-26.5c20.6,0,39.3,9.9,50,26.5c9.8,15.2,11.1,33.3,3.6,49.6l-19.2,42.1l-0.1,13.8c0,1.3,1.1,2.4,2.4,2.4
			c1.3,0,2.4-1.1,2.4-2.4l0.1-12.8l18.8-41.1C-26,93-27.4,73.2-38.1,56.6L-38.1,56.6z"/>
		<path class="st0" d="M-56.3,182.3l-73,12.1c-1.3,0.2-2.2,1.5-2,2.8c0.2,1.2,1.2,2.1,2.4,2.1c0.1,0,0.3,0,0.4,0l73-12.1
			c1.3-0.2,2.2-1.5,2-2.8C-53.7,183-54.9,182.1-56.3,182.3L-56.3,182.3z"/>
		<path class="st0" d="M-56.3,200.6l-73,12.1c-1.3,0.2-2.2,1.5-2,2.8c0.2,1.2,1.2,2.1,2.4,2.1c0.1,0,0.3,0,0.4,0l73-12.1
			c1.3-0.2,2.2-1.5,2-2.8C-53.7,201.3-54.9,200.4-56.3,200.6L-56.3,200.6z"/>
		<path class="st0" d="M-80.8,219c-1.3,0.2-2.2,1.5-1.9,2.9c0.1,0.4,0.1,1,0.1,1.5c0,2.6-1,5.1-2.8,6.9c-1.9,1.8-4.3,2.9-7,2.9
			c-4.8,0-8.9-3.5-9.6-8.2c-0.2-1.3-1.5-2.2-2.8-2c-1.3,0.2-2.2,1.5-2,2.8c1.2,7.1,7.2,12.3,14.5,12.3c3.9,0,7.6-1.5,10.4-4.3
			c2.8-2.8,4.3-6.5,4.3-10.4c0-0.9-0.1-1.7-0.2-2.4C-78.2,219.6-79.4,218.8-80.8,219z"/>
		<path class="st0" d="M-104.4,179.5c1.3,0,2.4-1.1,2.4-2.4l0-49.1l-20.4-20.4c0.5-1.1,0.8-2.3,0.8-3.6c0-4.7-3.8-8.6-8.6-8.6
			c-4.7,0-8.6,3.8-8.6,8.6c0,4.7,3.8,8.6,8.6,8.6c1.7,0,3.2-0.5,4.5-1.3l18.7,18.7v47.1C-106.8,178.4-105.7,179.5-104.4,179.5
			L-104.4,179.5z M-133.7,104c0-2,1.6-3.7,3.7-3.7c2,0,3.7,1.6,3.7,3.7c0,2-1.6,3.7-3.7,3.7C-132.1,107.7-133.7,106-133.7,104z"/>
		<path class="st0" d="M-94.6,109.6v50.1c0,1.3,1.1,2.4,2.4,2.4c1.3,0,2.4-1.1,2.4-2.4v-48.1L-71,92.9V74c3.5-1.1,6.1-4.3,6.1-8.2
			c0-4.7-3.8-8.6-8.6-8.6c-4.7,0-8.6,3.8-8.6,8.6c0,3.9,2.6,7.1,6.1,8.2v16.9L-94.6,109.6z M-77.1,65.9c0-2,1.6-3.7,3.7-3.7
			c2,0,3.7,1.6,3.7,3.7c0,2-1.6,3.7-3.7,3.7C-75.5,69.5-77.1,67.9-77.1,65.9z"/>
		<path class="st0" d="M-82.6,167.7c0,1.3,1.1,2.4,2.4,2.4c1.3,0,2.4-1.1,2.4-2.4l0-38.6l18.9-18.9c1.1,0.6,2.4,0.9,3.7,0.9
			c4.7,0,8.6-3.8,8.6-8.6c0-4.7-3.8-8.6-8.6-8.6c-4.7,0-8.6,3.8-8.6,8.6c0,1.6,0.5,3.1,1.2,4.4L-82.6,127L-82.6,167.7z M-55.1,98.8
			c2,0,3.7,1.6,3.7,3.7c0,2-1.6,3.7-3.7,3.7c-2,0-3.7-1.6-3.7-3.7C-58.8,100.5-57.1,98.8-55.1,98.8z"/>
		<path class="st0" d="M-114.2,59.2c0-4.7-3.8-8.6-8.6-8.6c-4.7,0-8.6,3.8-8.6,8.6c0,3.9,2.6,7.1,6.1,8.2v10.3l18.3,18.3v19.9
			c0,1.3,1.1,2.4,2.4,2.4c1.3,0,2.4-1.1,2.4-2.4V93.9l-18.3-18.3v-8.2C-116.7,66.3-114.2,63.1-114.2,59.2z M-126.4,59.2
			c0-2,1.6-3.7,3.7-3.7c2,0,3.7,1.6,3.7,3.7c0,2-1.6,3.7-3.7,3.7C-124.8,62.9-126.4,61.2-126.4,59.2z"/>
	</g>
	<rect x="-5.9" y="100.6" class="st1" width="443.4" height="108.6"/>
	<text transform="matrix(1 0 0 1 -5.9219 179.629)" class="st0 st2 st3">ShareThink</text>
</g>
</svg>
